<svg width="19" height="20" viewBox="0 0 19 20" fill="none" xmlns="http://www.w3.org/2000/svg">
<g clip-path="url(#clip0_612_513)">
<path d="M18.1739 10.2368C18.1739 9.4579 18.112 8.88952 17.9782 8.30011H9.2724V11.8156H14.3825C14.2795 12.6892 13.7232 14.0049 12.4868 14.889L12.4695 15.0066L15.2221 17.1852L15.4128 17.2046C17.1642 15.5521 18.1739 13.1207 18.1739 10.2368Z" fill="#4285F4"/>
<path d="M9.27238 19.4991C11.7759 19.4991 13.8776 18.657 15.4128 17.2046L12.4868 14.8889C11.7038 15.4468 10.6529 15.8362 9.27238 15.8362C6.82036 15.8362 4.73924 14.1838 3.99738 11.8998L3.88864 11.9092L1.02644 14.1722L0.989014 14.2785C2.51379 17.3729 5.64581 19.4991 9.27238 19.4991Z" fill="#34A853"/>
<path d="M3.9974 11.8998C3.80165 11.3103 3.68836 10.6788 3.68836 10.0262C3.68836 9.37361 3.80165 8.74211 3.9871 8.15269L3.98191 8.02716L1.08385 5.72784L0.989033 5.77392C0.360597 7.05804 0 8.50004 0 10.0262C0 11.5524 0.360597 12.9943 0.989033 14.2784L3.9974 11.8998Z" fill="#FBBC05"/>
<path d="M9.27238 4.21622C11.0135 4.21622 12.188 4.98457 12.8577 5.62666L15.4746 3.01635C13.8674 1.49017 11.7759 0.553406 9.27238 0.553406C5.64581 0.553406 2.51379 2.67952 0.989014 5.77396L3.98708 8.15273C4.73924 5.86873 6.82036 4.21622 9.27238 4.21622Z" fill="#EB4335"/>
</g>
<defs>
<clipPath id="clip0_612_513">
<rect y="0.526245" width="18.1739" height="19" rx="9.08696" fill="white"/>
</clipPath>
</defs>
</svg>
